<svg width="30" height="30" viewBox="0 0 30 30" fill="none" xmlns="http://www.w3.org/2000/svg">
<g clip-path="url(#clip0_615_6420)">
<path d="M6.5 4.35938C5.83696 4.35938 5.20107 4.61797 4.73223 5.07826C4.26339 5.53855 4 6.16285 4 6.8138V23.9948C4 24.6457 4.26339 25.27 4.73223 25.7303C5.20107 26.1906 5.83696 26.4492 6.5 26.4492H24C24.663 26.4492 25.2989 26.1906 25.7678 25.7303C26.2366 25.27 26.5 24.6457 26.5 23.9948V6.8138C26.5 6.16285 26.2366 5.53855 25.7678 5.07826C25.2989 4.61797 24.663 4.35938 24 4.35938H6.5ZM15.9137 8.04102H18.48C18.48 8.04102 18.3375 11.2747 22.0425 11.5018V14.0053C22.0425 14.0053 20.065 14.1268 18.48 12.9376L18.5062 18.1005C18.5067 19.024 18.2282 19.9269 17.7059 20.695C17.1836 21.4631 16.441 22.0618 15.5721 22.4154C14.7031 22.7691 13.7468 22.8617 12.8242 22.6817C11.9016 22.5016 11.0541 22.057 10.389 21.4039C9.72381 20.7509 9.27089 19.9189 9.08749 19.0131C8.9041 18.1073 8.99848 17.1684 9.35868 16.3153C9.71889 15.4622 10.3287 14.7331 11.1111 14.2204C11.8934 13.7076 12.8131 13.4341 13.7538 13.4346H14.42V15.9897C13.9853 15.8571 13.519 15.8626 13.0876 16.0054C12.6562 16.1482 12.2817 16.421 12.0175 16.7849C11.7517 17.1486 11.61 17.5856 11.6127 18.0332C11.6154 18.4808 11.7624 18.9161 12.0326 19.2767C12.3029 19.6372 12.6824 19.9045 13.1169 20.0402C13.5514 20.1759 14.0185 20.1731 14.4513 20.0321C14.8836 19.8926 15.2602 19.6228 15.5273 19.261C15.7943 18.8992 15.9383 18.4639 15.9387 18.017L15.9125 8.04102H15.9137Z" fill="black"/>
</g>
<defs>
<clipPath id="clip0_615_6420">
<rect width="30" height="29.4531" fill="white" transform="translate(0 0.296875)"/>
</clipPath>
</defs>
</svg>
