<svg width="121" height="121" viewBox="0 0 121 121" fill="none" xmlns="http://www.w3.org/2000/svg">
<path d="M117.917 48.6296C117.82 48.1528 117.716 47.6783 117.608 47.2086C117.118 45.0841 116.511 43.0021 115.795 40.972C115.556 40.2969 115.306 39.6265 115.044 38.9632C114.779 38.2976 114.505 37.639 114.221 36.9875C114.221 36.9875 114.224 36.9851 114.221 36.9851C107.838 22.4159 95.6888 10.9413 80.6541 5.44128C80.6541 5.44128 80.6533 5.44128 80.6517 5.44128C80.2027 5.2784 79.7537 5.11788 79.2999 4.96445C77.485 4.35071 75.6275 3.82195 73.7369 3.38761C73.2643 3.27903 72.7893 3.17516 72.3143 3.07838C68.4977 2.29704 64.5464 1.88867 60.5006 1.88867C56.4547 1.88867 52.5034 2.29704 48.6868 3.07838C48.2118 3.17516 47.7368 3.27903 47.2642 3.38761C45.3736 3.82195 43.5161 4.35071 41.7012 4.96445C41.2474 5.11788 40.7984 5.2784 40.3494 5.44128C40.3494 5.44128 40.3486 5.44128 40.3471 5.44128C25.3123 10.9413 13.163 22.4159 6.77995 36.9851C6.77759 36.9851 6.77995 36.9875 6.77995 36.9875C6.49637 37.639 6.22223 38.2976 5.95755 38.9609C5.69524 39.6265 5.44474 40.2969 5.20605 40.972C4.49 43.0021 3.88265 45.0841 3.39346 47.2086C3.28476 47.6783 3.18077 48.1528 3.08388 48.6296C2.30166 52.4419 1.89282 56.3863 1.89282 60.4299C1.89282 61.3057 1.91173 62.1767 1.9519 63.043C1.95663 63.2295 1.96608 63.4184 1.9779 63.6025C1.98735 63.7984 1.99917 63.9943 2.01098 64.1903C2.02753 64.4381 2.04407 64.686 2.06297 64.9338C2.08188 65.1817 2.10315 65.4295 2.12442 65.6774C3.55653 81.7715 11.5087 95.9961 23.3272 105.691C30.724 111.757 39.6334 116.054 49.4053 117.923C49.4194 117.923 49.4336 117.928 49.4478 117.93C49.9252 118.02 50.4049 118.105 50.887 118.185C51.4353 118.275 51.9835 118.36 52.5365 118.433C52.7138 118.457 52.8886 118.48 53.0659 118.504C53.5669 118.568 54.0679 118.624 54.5713 118.676C55.2897 118.747 56.0105 118.806 56.736 118.853C57.9814 118.931 59.2362 118.971 60.5006 118.971C64.5464 118.971 68.4977 118.563 72.3143 117.781C72.7893 117.685 73.2643 117.581 73.7369 117.472C75.6275 117.038 77.485 116.509 79.2999 115.895C79.7537 115.742 80.2027 115.581 80.6517 115.419C80.6517 115.419 80.6525 115.419 80.6541 115.419C95.6888 109.919 107.838 98.444 114.221 83.8748C114.224 83.8748 114.221 83.8724 114.221 83.8724C114.505 83.2209 114.779 82.5623 115.044 81.899C115.306 81.2333 115.556 80.5629 115.795 79.8878C116.511 77.8578 117.118 75.7758 117.608 73.6513C117.716 73.1815 117.82 72.7071 117.917 72.2302C118.222 70.7455 118.47 69.2418 118.657 67.7193C118.865 66.0645 119.002 64.3885 119.066 62.6937C119.075 62.4482 119.082 62.2003 119.089 61.9525C119.101 61.4473 119.108 60.9398 119.108 60.4299C119.108 56.3863 118.699 52.4419 117.917 48.6296ZM60.5006 43.9062C68.8545 43.9062 75.6251 50.459 75.6251 58.5415C75.6251 66.624 68.8545 73.1768 60.5006 73.1768C52.1466 73.1768 45.376 66.624 45.376 58.5415C45.376 50.459 52.1466 43.9062 60.5006 43.9062Z" fill="#FFFEF0"/>
<path d="M60.5006 120.859C59.215 120.859 57.9082 120.819 56.6179 120.737C55.8735 120.687 55.122 120.628 54.3846 120.555C53.8269 120.498 53.3188 120.439 52.8273 120.375L52.2861 120.302C51.7875 120.236 51.2463 120.156 50.5822 120.047C50.0859 119.965 49.5968 119.877 49.1123 119.788C49.091 119.785 49.0721 119.781 49.0509 119.776C39.2175 117.895 29.9064 113.528 22.1291 107.149C15.9658 102.093 10.9298 95.9793 7.16759 88.9756C3.299 81.7783 0.968874 73.9956 0.243367 65.8424V65.8022C0.219735 65.5591 0.198466 65.3183 0.17956 65.0752C0.160655 64.8202 0.144112 64.5677 0.125207 64.3127V64.275C0.111027 64.0861 0.0992112 63.8949 0.0897583 63.7061C0.0779422 63.5101 0.0684894 63.3095 0.0613997 63.1089C0.0212251 62.2402 0.00231934 61.3385 0.00231934 60.4273C0.00231934 56.3223 0.415882 52.2244 1.23119 48.2469C1.32572 47.7795 1.43443 47.2838 1.55023 46.7787C2.04886 44.6141 2.67748 42.4471 3.42189 40.3391C3.6653 39.6522 3.91817 38.9724 4.17812 38.3138C4.18521 38.2949 4.1923 38.2737 4.19939 38.2548C4.46407 37.5938 4.73584 36.9376 5.01234 36.3003C5.0147 36.2932 5.01943 36.2837 5.02179 36.2767C5.03597 36.2412 5.05251 36.2035 5.06905 36.1704C11.6601 21.1763 24.2465 9.34295 39.624 3.6942C39.6807 3.67059 39.7374 3.65171 39.7941 3.63282C40.1817 3.49355 40.6307 3.33303 41.0963 3.17488C42.9845 2.53517 44.9176 1.98753 46.8412 1.54611C47.3493 1.42808 47.8433 1.32186 48.3088 1.22744C56.2681 -0.401333 64.7332 -0.401333 72.6948 1.22744C73.158 1.32186 73.6519 1.42808 74.1624 1.54611C76.086 1.98753 78.0191 2.53517 79.9074 3.17488C80.3729 3.33303 80.8219 3.49355 81.2095 3.63282C81.2662 3.64935 81.3229 3.67059 81.3796 3.6942C96.7547 9.34295 109.344 21.1763 115.932 36.1752C115.949 36.2106 115.965 36.246 115.979 36.2814C115.982 36.2885 115.987 36.2979 115.989 36.305C116.265 36.9423 116.537 37.5986 116.802 38.2595C116.809 38.2784 116.816 38.2996 116.823 38.3185C117.083 38.9748 117.336 39.6546 117.579 40.3415C118.324 42.4495 118.952 44.6164 119.451 46.7834C119.567 47.2862 119.676 47.7795 119.77 48.2493C120.585 52.2244 120.999 56.3223 120.999 60.4273C120.999 60.9206 120.992 61.4329 120.98 61.9947C120.973 62.2591 120.966 62.5116 120.956 62.7642C120.89 64.4969 120.748 66.2413 120.533 67.9527C120.344 69.4941 120.087 71.0615 119.77 72.6076C119.676 73.0727 119.567 73.5684 119.451 74.0735C118.952 76.2381 118.324 78.4051 117.579 80.5131C117.336 81.2 117.083 81.8798 116.823 82.5361C116.816 82.5549 116.809 82.5762 116.8 82.5951C116.535 83.256 116.263 83.9123 115.987 84.5472C115.982 84.5638 115.975 84.5779 115.968 84.5944C115.956 84.6228 115.944 84.6511 115.93 84.6794C109.341 99.683 96.7524 111.516 81.3749 117.163C81.3206 117.186 81.2638 117.205 81.2095 117.222C80.8219 117.361 80.3729 117.524 79.905 117.68C78.0168 118.317 76.0837 118.867 74.16 119.308C73.6425 119.426 73.1627 119.533 72.6901 119.627C68.7104 120.442 64.6079 120.855 60.4983 120.855L60.5006 120.859ZM49.8165 116.077C50.275 116.162 50.7358 116.244 51.199 116.322C51.8182 116.424 52.3239 116.499 52.7847 116.561L53.3141 116.632C53.7678 116.688 54.2452 116.745 54.7651 116.797C55.4528 116.865 56.1594 116.922 56.8589 116.967C58.0665 117.042 59.293 117.08 60.5006 117.08C64.355 117.08 68.2024 116.693 71.9339 115.928C72.3758 115.838 72.8248 115.739 73.3116 115.628C75.1148 115.215 76.925 114.701 78.6927 114.103C79.1322 113.955 79.5694 113.799 80.0066 113.641C80.0232 113.636 80.0373 113.629 80.0539 113.624C94.4766 108.332 106.286 97.2375 112.465 83.1687C112.472 83.1522 112.48 83.1356 112.487 83.1167C112.751 82.5101 113.014 81.8822 113.267 81.2496C113.271 81.233 113.278 81.2165 113.285 81.2C113.534 80.5721 113.779 79.9182 114.013 79.2573C114.708 77.2839 115.299 75.2538 115.767 73.2261C115.878 72.7516 115.977 72.289 116.067 71.8523C116.365 70.4006 116.606 68.9347 116.783 67.4876C116.984 65.8801 117.119 64.2443 117.18 62.6202C117.189 62.3795 117.197 62.1387 117.204 61.8955C117.215 61.3739 117.223 60.89 117.223 60.4273C117.223 56.5749 116.835 52.7343 116.069 49.007C115.979 48.5656 115.88 48.1053 115.772 47.6332C115.304 45.6031 114.715 43.5731 114.018 41.5997C113.784 40.9411 113.541 40.2872 113.29 39.6569C113.283 39.6404 113.278 39.6263 113.271 39.6097C113.018 38.9771 112.756 38.3468 112.491 37.7402C112.484 37.7237 112.477 37.7071 112.47 37.6906C106.29 23.6218 94.4813 12.525 80.0586 7.23264C80.0421 7.22792 80.0279 7.22083 80.0113 7.21611C79.5741 7.05796 79.1393 6.90216 78.6998 6.75345C76.9297 6.15623 75.1195 5.64164 73.3187 5.22854C72.839 5.1176 72.3758 5.01845 71.941 4.92875C64.4756 3.40149 56.5352 3.40149 49.0721 4.92875C48.6349 5.01845 48.1717 5.1176 47.6944 5.22854C45.8936 5.64164 44.0834 6.15623 42.3133 6.75345C41.8738 6.90216 41.4366 7.05796 40.9994 7.21611C40.9828 7.22083 40.9687 7.22792 40.9521 7.23264C26.5247 12.525 14.7157 23.6218 8.53353 37.6906C8.52644 37.7071 8.51935 37.7237 8.51226 37.7402C8.24758 38.3468 7.98526 38.9771 7.7324 39.6097C7.72767 39.6263 7.72058 39.6404 7.71349 39.6569C7.46535 40.2872 7.21958 40.9411 6.98562 41.5997C6.29084 43.5731 5.70003 45.6031 5.23211 47.6308C5.12341 48.1053 5.02179 48.5656 4.93199 49.0047C4.1663 52.7343 3.77874 56.5773 3.77874 60.4297C3.77874 61.2889 3.79764 62.1387 3.83545 62.9554C3.83545 62.9696 3.83545 62.9814 3.83545 62.9956C3.84018 63.1584 3.84727 63.3213 3.85909 63.4818C3.85909 63.4913 3.85909 63.5007 3.85909 63.5101C3.86854 63.6895 3.87799 63.8689 3.88981 64.0483V64.0743C3.90635 64.3033 3.92289 64.5464 3.9418 64.7872C3.95834 65.0162 3.97961 65.2475 3.99852 65.4788V65.5119C4.68149 73.1459 6.8651 80.4399 10.4903 87.1863C14.0186 93.751 18.7403 99.4847 24.5207 104.227C31.7994 110.197 40.5031 114.285 49.7007 116.053C49.7362 116.058 49.774 116.065 49.8118 116.072L49.8165 116.077ZM60.5006 75.065C51.1187 75.065 43.4855 67.6529 43.4855 58.5412C43.4855 49.4296 51.1187 42.0175 60.5006 42.0175C69.8826 42.0175 77.5158 49.4296 77.5158 58.5412C77.5158 67.6529 69.8826 75.065 60.5006 75.065ZM60.5006 45.7943C53.203 45.7943 47.2666 51.5116 47.2666 58.5412C47.2666 65.5709 53.203 71.2881 60.5006 71.2881C67.7982 71.2881 73.7346 65.5709 73.7346 58.5412C73.7346 51.5116 67.7982 45.7943 60.5006 45.7943Z" fill="black"/>
<path d="M32.1398 96.3095C31.8562 96.3095 31.5679 96.2458 31.2961 96.1089L27.515 94.2205C26.5815 93.7531 26.2034 92.62 26.6689 91.6876C27.1368 90.7552 28.2712 90.3775 29.2047 90.8425L32.9858 92.731C33.9193 93.1983 34.2974 94.3314 33.8318 95.2638C33.501 95.9248 32.8322 96.3072 32.1398 96.3072V96.3095Z" fill="black"/>
<path d="M117.917 48.6296C117.82 48.1528 117.716 47.6807 117.608 47.2086C117.118 45.0841 116.511 43.0021 115.795 40.972C115.556 40.2969 115.308 39.6265 115.044 38.9632C114.781 38.2976 114.509 37.639 114.221 36.9875C114.221 36.9875 114.224 36.9851 114.221 36.9851C107.84 22.4112 95.6912 10.939 80.6541 5.44128C80.6541 5.44128 80.6533 5.44128 80.6517 5.44128C80.2051 5.27604 79.7537 5.11788 79.2999 4.96445C77.485 4.35071 75.6275 3.82195 73.7369 3.38761C73.2643 3.27903 72.7916 3.17516 72.3143 3.07838C68.4977 2.29704 64.5464 1.88867 60.5006 1.88867C56.4547 1.88867 52.5034 2.29704 48.6868 3.07838C48.2118 3.17516 47.7368 3.27903 47.2642 3.38761C45.3736 3.82195 43.5161 4.35071 41.7012 4.96445C41.2474 5.11788 40.7984 5.2784 40.3494 5.44128C40.3494 5.44128 40.3486 5.44128 40.3471 5.44128C25.3099 10.939 13.1606 22.4112 6.77995 36.9851C6.77759 36.9851 6.77995 36.9875 6.77995 36.9875C6.49164 37.639 6.21987 38.2976 5.95755 38.9609C5.69287 39.6265 5.44474 40.2969 5.20605 40.972C4.49 43.0021 3.88265 45.0841 3.39346 47.2086C3.28476 47.6783 3.18077 48.1528 3.08388 48.6296C2.30166 52.4419 1.89282 56.3863 1.89282 60.4299C1.89282 61.3057 1.91173 62.1767 1.9519 63.043C1.95663 63.2295 1.96608 63.4184 1.9779 63.6025C1.98735 63.7984 1.99917 63.9943 2.01098 64.1903C2.02753 64.4381 2.04407 64.686 2.06297 64.9338C2.08188 65.1817 2.10315 65.4295 2.12442 65.6774C3.43837 80.6526 10.3319 94.0888 20.7985 103.675C21.5548 104.447 22.4032 105.124 23.3272 105.691C25.3406 106.93 27.7062 107.641 30.2514 107.641C37.5537 107.641 43.4854 101.716 43.4854 94.4216V90.6448C43.4854 86.4666 46.8648 83.0911 51.0477 83.0911C55.2306 83.0911 58.61 86.4666 58.61 90.6448V91.589C58.61 96.2865 62.4148 100.087 67.1176 100.087C71.8204 100.087 75.6251 96.2865 75.6251 91.589V83.0911C75.6251 81.0138 77.3267 79.3142 79.4063 79.3142C81.4859 79.3142 83.1874 81.0138 83.1874 83.0911V98.1985C83.1874 100.087 84.4636 101.834 86.3305 102.117C88.6937 102.495 90.7497 100.677 90.7497 98.3873V77.473C90.7497 75.3957 92.4512 73.6961 94.5309 73.6961C95.5707 73.6961 96.516 74.121 97.2013 74.8056C97.8866 75.4901 98.312 76.4344 98.312 77.473V81.0374C98.312 82.9258 99.5881 84.6726 101.455 84.9559C103.818 85.3336 105.874 83.516 105.874 81.2262V79.3142C105.874 77.473 105.874 71.7605 109.655 69.8721C112.184 67.7476 114.689 65.5995 117.218 63.475L118.657 67.7193V67.724C118.872 66.0692 119.007 64.3933 119.066 62.6937C119.075 62.4482 119.082 62.2003 119.089 61.9525C119.101 61.4473 119.108 60.9398 119.108 60.4299C119.108 56.3863 118.699 52.4419 117.917 48.6296ZM60.5006 73.1768C52.1466 73.1768 45.376 66.624 45.376 58.5415C45.376 50.459 52.1466 43.9062 60.5006 43.9062C68.8545 43.9062 75.6251 50.459 75.6251 58.5415C75.6251 66.624 68.8545 73.1768 60.5006 73.1768Z" fill="#E5ACB4"/>
<path d="M30.2515 109.529C27.444 109.529 24.7051 108.757 22.3348 107.298C21.2997 106.663 20.3402 105.901 19.4847 105.032C8.40123 94.8651 1.56681 80.9474 0.241048 65.8424V65.8046C0.217416 65.5614 0.196147 65.3207 0.177241 65.0775C0.158335 64.8226 0.141793 64.57 0.122887 64.3151V64.2773C0.108708 64.0885 0.0968918 63.8973 0.087439 63.7084C0.0756229 63.5125 0.06617 63.3119 0.0590804 63.1112C0.0189057 62.2425 0 61.3408 0 60.4296C0 56.3247 0.413563 52.2268 1.22887 48.2493C1.3234 47.7819 1.43211 47.2862 1.54791 46.781C2.04654 44.6164 2.67516 42.4495 3.41957 40.3415C3.68425 39.5956 3.93239 38.9323 4.17817 38.3114C4.18289 38.2949 4.18998 38.2784 4.19707 38.2619C4.48302 37.5395 4.75006 36.8951 5.01711 36.2932C5.01711 36.2885 5.02183 36.2837 5.02183 36.279C5.03601 36.2436 5.05255 36.2082 5.0691 36.1728C11.6554 21.174 24.2419 9.34059 39.624 3.69419C39.6808 3.67059 39.7375 3.65171 39.7942 3.63282C40.1818 3.49355 40.6308 3.33303 41.0963 3.17488C42.9845 2.53517 44.9176 1.98753 46.8413 1.54611C47.3494 1.42808 47.8433 1.32186 48.3089 1.22744C56.2682 -0.401333 64.7332 -0.401333 72.6949 1.22744C73.1463 1.3195 73.6283 1.42336 74.1624 1.54611C76.0861 1.98753 78.0192 2.53517 79.9074 3.17488C80.3824 3.33539 80.8125 3.48647 81.219 3.63518C81.2734 3.65171 81.3253 3.67059 81.3797 3.69419C96.7595 9.34059 109.348 21.174 115.932 36.1775C115.949 36.2129 115.965 36.2483 115.98 36.2837C115.98 36.2885 115.984 36.2932 115.984 36.2979C116.249 36.8998 116.518 37.5443 116.804 38.2666C116.811 38.2831 116.816 38.2996 116.823 38.3162C117.069 38.9346 117.317 39.5979 117.579 40.3439C118.324 42.4518 118.952 44.6188 119.451 46.7858C119.574 47.3169 119.678 47.7984 119.77 48.2516C120.585 52.2268 120.999 56.3247 120.999 60.4296C120.999 60.923 120.992 61.4352 120.98 61.997C120.973 62.2614 120.966 62.514 120.956 62.7666C120.895 64.5157 120.753 66.2673 120.536 67.9645C120.429 68.7859 119.801 69.4422 118.986 69.5838C118.17 69.7254 117.355 69.3218 116.977 68.5853C116.934 68.5027 116.896 68.413 116.866 68.3256L116.317 66.7087C115.764 67.1761 115.214 67.6458 114.661 68.1132C113.401 69.1825 112.139 70.2542 110.873 71.3188C110.759 71.4132 110.634 71.4958 110.502 71.5619C108.687 72.4684 107.765 75.0768 107.765 79.3139V81.226C107.765 82.8831 107.037 84.4552 105.77 85.5339C104.499 86.6151 102.819 87.0848 101.157 86.8204C98.4634 86.412 96.4216 83.924 96.4216 81.0371V77.4727C96.4216 76.9723 96.2231 76.5002 95.8638 76.1414C95.5046 75.7826 95.032 75.5843 94.531 75.5843C93.4888 75.5843 92.6404 76.4317 92.6404 77.4727V98.387C92.6404 100.044 91.9125 101.616 90.6459 102.695C89.3745 103.776 87.6942 104.246 86.0329 103.979C83.3388 103.571 81.297 101.083 81.297 98.1958V83.0884C81.297 82.0474 80.4486 81.2 79.4064 81.2C78.3642 81.2 77.5158 82.0474 77.5158 83.0884V91.5863C77.5158 97.313 72.8508 101.973 67.1177 101.973C61.3845 101.973 56.7195 97.313 56.7195 91.5863V90.6421C56.7195 87.5191 54.1744 84.9768 51.0478 84.9768C47.9213 84.9768 45.3761 87.5191 45.3761 90.6421V94.419C45.3761 102.749 38.5913 109.526 30.2515 109.526V109.529ZM7.7348 39.605C7.72771 39.6239 7.72063 39.6428 7.71354 39.6617C7.47958 40.2471 7.24326 40.8821 6.98803 41.5997C6.29324 43.5731 5.70244 45.6031 5.23452 47.6308C5.12581 48.1053 5.0242 48.5656 4.93439 49.0047C4.16871 52.7343 3.78114 56.5773 3.78114 60.4296C3.78114 61.2889 3.80005 62.1387 3.83786 62.9554C3.83786 62.9696 3.83786 62.9814 3.83786 62.9955C3.84259 63.1584 3.84968 63.3213 3.86149 63.4818C3.86149 63.4913 3.86149 63.5007 3.86149 63.5101C3.87095 63.6895 3.8804 63.8689 3.89222 64.0483V64.0743C3.90876 64.3033 3.9253 64.5464 3.94421 64.7872C3.96075 65.0162 3.98202 65.2475 4.00092 65.4788V65.5119C5.2487 79.6869 11.6648 92.7477 22.0724 102.28C22.0984 102.303 22.1221 102.327 22.1457 102.35C22.7956 103.014 23.5234 103.594 24.3128 104.078C26.0899 105.171 28.1412 105.75 30.2492 105.75C36.5046 105.75 41.5926 100.667 41.5926 94.419V90.6421C41.5926 85.4348 45.8322 81.2 51.0455 81.2C56.2587 81.2 60.4983 85.4348 60.4983 90.6421V91.5863C60.4983 95.231 63.4665 98.1958 67.1153 98.1958C70.7641 98.1958 73.7323 95.231 73.7323 91.5863V83.0884C73.7323 79.9654 76.2775 77.4231 79.404 77.4231C82.5306 77.4231 85.0758 79.9654 85.0758 83.0884V98.1958C85.0758 99.2156 85.7516 100.117 86.6118 100.247C87.2003 100.342 87.7556 100.188 88.1881 99.8199C88.6135 99.4587 88.8569 98.9347 88.8569 98.3847V77.4703C88.8569 74.3474 91.4021 71.8051 94.5286 71.8051C96.0387 71.8051 97.4637 72.3952 98.5366 73.4669C99.6095 74.5386 100.2 75.9596 100.2 77.4703V81.0348C100.2 82.0545 100.876 82.9562 101.736 83.0861C102.325 83.1805 102.88 83.027 103.313 82.6588C103.738 82.2976 103.981 81.7736 103.981 81.2236V79.3116C103.981 77.1871 103.981 70.7853 108.594 68.2902C109.802 67.2728 111.007 66.2531 112.21 65.231C113.47 64.1617 114.732 63.09 115.998 62.0254C116.341 61.7374 116.769 61.5839 117.204 61.5816C117.211 61.1779 117.215 60.7955 117.215 60.4249C117.215 56.5725 116.828 52.7319 116.062 49.0047C115.977 48.5774 115.878 48.1289 115.762 47.6285C115.294 45.6008 114.706 43.5707 114.009 41.5973C113.756 40.8797 113.517 40.2471 113.283 39.6593C113.276 39.6404 113.269 39.6215 113.262 39.6003C112.99 38.9157 112.737 38.3091 112.489 37.7473C112.48 37.7284 112.473 37.7071 112.463 37.6859C106.286 23.6147 94.4766 12.5179 80.0516 7.22792C80.0327 7.22083 80.0114 7.21375 79.9925 7.20667C79.5931 7.05796 79.1677 6.90924 78.6904 6.74873C76.9203 6.15151 75.1101 5.63691 73.3093 5.22382C72.8083 5.10815 72.3569 5.01137 71.9339 4.92403C64.4638 3.39441 56.5258 3.39677 49.0627 4.92403C48.6255 5.01373 48.1623 5.11288 47.685 5.22382C45.8842 5.63691 44.074 6.15151 42.3039 6.74873C41.8644 6.89744 41.4272 7.05324 40.99 7.21139C40.9734 7.21611 40.9593 7.22319 40.9427 7.22792C26.52 12.5226 14.711 23.6195 8.53593 37.6906C8.52884 37.7119 8.51939 37.7307 8.50994 37.752C8.2618 38.3162 8.00657 38.9228 7.73717 39.605H7.7348ZM60.5007 75.065C51.1187 75.065 43.4855 67.6529 43.4855 58.5412C43.4855 49.4296 51.1187 42.0175 60.5007 42.0175C69.8826 42.0175 77.5158 49.4296 77.5158 58.5412C77.5158 67.6529 69.8826 75.065 60.5007 75.065ZM60.5007 45.7943C53.2031 45.7943 47.2667 51.5115 47.2667 58.5412C47.2667 65.5709 53.2031 71.2881 60.5007 71.2881C67.7983 71.2881 73.7347 65.5709 73.7347 58.5412C73.7347 51.5115 67.7983 45.7943 60.5007 45.7943Z" fill="black"/>
<path d="M60.5005 120.859C52.3663 120.859 44.4685 119.268 37.0314 116.131C36.0696 115.725 35.6182 114.618 36.0247 113.657C36.4312 112.697 37.5395 112.246 38.5013 112.652C45.4705 115.593 52.8721 117.083 60.5005 117.083C75.6534 117.083 89.8989 111.191 100.609 100.493C111.319 89.7947 117.218 75.5654 117.218 60.4297C117.218 45.2939 111.319 31.0646 100.609 20.3667C89.8989 9.66875 75.6534 3.77686 60.5005 3.77686C45.3476 3.77686 31.1021 9.66875 20.392 20.3667C9.68193 31.0646 3.78334 45.2939 3.78334 60.4297C3.78334 76.3798 10.45 91.6336 22.077 102.282C22.1006 102.306 22.1266 102.327 22.1479 102.35C24.3008 104.543 27.1792 105.75 30.2514 105.75C36.5068 105.75 41.5948 100.667 41.5948 94.419V90.6422C41.5948 85.4348 45.8344 81.2 51.0476 81.2C56.2609 81.2 60.5005 85.4348 60.5005 90.6422V91.5864C60.5005 95.231 63.4687 98.1959 67.1175 98.1959C70.7663 98.1959 73.7345 95.231 73.7345 91.5864V83.0885C73.7345 79.9655 76.2797 77.4232 79.4062 77.4232C82.5328 77.4232 85.078 79.9655 85.078 83.0885V98.1959C85.078 99.2156 85.7538 100.117 86.614 100.247C87.2025 100.342 87.7578 100.188 88.1903 99.8199C88.6157 99.4588 88.8591 98.9347 88.8591 98.3847V77.4704C88.8591 74.3474 91.4043 71.8051 94.5308 71.8051C97.6573 71.8051 100.203 74.3474 100.203 77.4704V81.0348C100.203 82.0545 100.878 82.9563 101.739 83.0861C102.327 83.1805 102.882 83.0271 103.315 82.6588C103.74 82.2977 103.984 81.7736 103.984 81.2236V79.3116C103.984 77.1541 103.984 70.5918 108.809 68.1793C109.743 67.7119 110.88 68.092 111.345 69.0244C111.813 69.9568 111.433 71.0922 110.499 71.5573C108.684 72.4637 107.762 75.0721 107.762 79.3092V81.2213C107.762 82.8807 107.035 84.4505 105.768 85.5316C104.496 86.6127 102.816 87.0825 101.155 86.8157C98.4608 86.4074 96.419 83.9194 96.419 81.0324V77.468C96.419 76.427 95.5706 75.5796 94.5284 75.5796C93.4863 75.5796 92.6379 76.427 92.6379 77.468V98.3824C92.6379 100.039 91.91 101.612 90.6433 102.69C89.3719 103.771 87.6917 104.241 86.0303 103.974C83.3363 103.566 81.2944 101.078 81.2944 98.1912V83.0837C81.2944 82.0427 80.446 81.1953 79.4039 81.1953C78.3617 81.1953 77.5133 82.0427 77.5133 83.0837V91.5817C77.5133 97.3083 72.8483 101.968 67.1151 101.968C61.382 101.968 56.717 97.3083 56.717 91.5817V90.6374C56.717 87.5145 54.1718 84.9722 51.0453 84.9722C47.9188 84.9722 45.3736 87.5145 45.3736 90.6374V94.4143C45.3736 102.745 38.5888 109.522 30.249 109.522C26.1701 109.522 22.3488 107.926 19.4822 105.027C7.10366 93.6731 0.00219727 77.4185 0.00219727 60.4297C0.00219727 43.4409 6.29308 29.1078 17.7192 17.6969C29.143 6.28374 44.3361 0 60.5005 0C76.6649 0 91.858 6.28374 103.282 17.6969C114.706 29.1078 120.999 44.286 120.999 60.4297C120.999 76.5734 114.708 91.7516 103.282 103.162C91.858 114.573 76.6625 120.859 60.5005 120.859Z" fill="black"/>
<path d="M58.6101 37.769C57.5655 37.769 56.7195 36.924 56.7195 35.8806V32.1038C56.7195 31.0604 57.5655 30.2153 58.6101 30.2153C59.6546 30.2153 60.5006 31.0604 60.5006 32.1038V35.8806C60.5006 36.924 59.6546 37.769 58.6101 37.769Z" fill="#D6E4CA"/>
<path d="M17.0175 79.314H15.1269C14.0824 79.314 13.2363 78.4689 13.2363 77.4255C13.2363 76.3822 14.0824 75.5371 15.1269 75.5371H17.0175C18.062 75.5371 18.908 76.3822 18.908 77.4255C18.908 78.4689 18.062 79.314 17.0175 79.314Z" fill="#D6E4CA"/>
<path d="M39.7043 24.5494C39.2198 24.5494 38.7377 24.3653 38.3667 23.997C37.6294 23.2605 37.6294 22.0638 38.3667 21.3273L42.1479 17.5504C42.8852 16.8139 44.0833 16.8139 44.8207 17.5504C45.558 18.2869 45.558 19.4837 44.8207 20.2202L41.0395 23.997C40.6708 24.3653 40.1864 24.5494 39.7019 24.5494H39.7043Z" fill="#D6E4CA"/>
<path d="M11.3458 64.2065C10.3012 64.2065 9.4552 63.3615 9.4552 62.3181V58.5413C9.4552 57.4979 10.3012 56.6528 11.3458 56.6528C12.3903 56.6528 13.2363 57.4979 13.2363 58.5413V62.3181C13.2363 63.3615 12.3903 64.2065 11.3458 64.2065Z" fill="#D6E4CA"/>
<path d="M94.5309 37.769H92.6403C91.5958 37.769 90.7498 36.924 90.7498 35.8806C90.7498 34.8373 91.5958 33.9922 92.6403 33.9922H94.5309C95.5754 33.9922 96.4215 34.8373 96.4215 35.8806C96.4215 36.924 95.5754 37.769 94.5309 37.769Z" fill="#D6E4CA"/>
<path d="M66.1724 84.9798C65.6879 84.9798 65.2058 84.7957 64.8348 84.4275L62.9442 82.539C62.2069 81.8025 62.2069 80.6057 62.9442 79.8693C63.6816 79.1328 64.8797 79.1328 65.617 79.8693L67.5076 81.7577C68.2449 82.4942 68.2449 83.691 67.5076 84.4275C67.1389 84.7957 66.6545 84.9798 66.17 84.9798H66.1724Z" fill="#D6E4CA"/>
<path d="M39.7044 77.4256C39.2199 77.4256 38.7378 77.2415 38.3668 76.8733L36.4762 74.9848C35.7389 74.2483 35.7389 73.0515 36.4762 72.3151C37.2135 71.5786 38.4117 71.5786 39.149 72.3151L41.0396 74.2035C41.7769 74.94 41.7769 76.1368 41.0396 76.8733C40.6709 77.2415 40.1865 77.4256 39.702 77.4256H39.7044Z" fill="#D6E4CA"/>
<path d="M88.8593 60.4298C88.3749 60.4298 87.8928 60.2456 87.5217 59.8774C86.7844 59.1409 86.7844 57.9441 87.5217 57.2076L91.3029 53.4308C92.0402 52.6943 93.2384 52.6943 93.9757 53.4308C94.713 54.1673 94.713 55.3641 93.9757 56.1005L90.1945 59.8774C89.8259 60.2456 89.3414 60.4298 88.857 60.4298H88.8593Z" fill="#D6E4CA"/>
<path d="M79.4064 69.8723C78.3619 69.8723 77.5159 69.0272 77.5159 67.9839V66.0955C77.5159 65.0521 78.3619 64.207 79.4064 64.207C80.451 64.207 81.297 65.0521 81.297 66.0955V67.9839C81.297 69.0272 80.451 69.8723 79.4064 69.8723Z" fill="#D6E4CA"/>
<path d="M100.203 67.9837C99.7182 67.9837 99.2361 67.7996 98.8651 67.4314L96.9745 65.5429C96.2372 64.8064 96.2372 63.6097 96.9745 62.8732C97.7118 62.1367 98.91 62.1367 99.6473 62.8732L101.538 64.7616C102.275 65.4981 102.275 66.6949 101.538 67.4314C101.169 67.7996 100.685 67.9837 100.2 67.9837H100.203Z" fill="#D6E4CA"/>
<path d="M69.9558 18.8839C69.261 18.8839 68.5946 18.5015 68.2637 17.8405C67.7958 16.9081 68.1763 15.7727 69.1097 15.3077L72.8909 13.4193C73.8244 12.9519 74.9611 13.3319 75.4266 14.2643C75.8945 15.1967 75.5141 16.3322 74.5806 16.7972L70.7994 18.6856C70.5277 18.8202 70.2394 18.8863 69.9558 18.8863V18.8839Z" fill="#D6E4CA"/>
<path d="M58.61 15.1079H56.7194C55.6749 15.1079 54.8289 14.2628 54.8289 13.2195C54.8289 12.1761 55.6749 11.3311 56.7194 11.3311H58.61C59.6545 11.3311 60.5006 12.1761 60.5006 13.2195C60.5006 14.2628 59.6545 15.1079 58.61 15.1079Z" fill="#D6E4CA"/>
<path d="M77.5136 32.1035C77.23 32.1035 76.9417 32.0397 76.6699 31.9028L72.8887 30.0144C71.9553 29.547 71.5772 28.414 72.0427 27.4816C72.5106 26.5491 73.645 26.1715 74.5784 26.6365L78.3596 28.5249C79.2931 28.9923 79.6712 30.1254 79.2056 31.0578C78.8748 31.7187 78.206 32.1011 77.5136 32.1011V32.1035Z" fill="#D6E4CA"/>
<path d="M105.874 49.0996H103.984C102.939 49.0996 102.093 48.2545 102.093 47.2112C102.093 46.1678 102.939 45.3228 103.984 45.3228H105.874C106.919 45.3228 107.765 46.1678 107.765 47.2112C107.765 48.2545 106.919 49.0996 105.874 49.0996Z" fill="#D6E4CA"/>
<path d="M34.0326 95.3656C33.5482 95.3656 33.0661 95.1814 32.695 94.8132L30.8045 92.9248C30.0671 92.1883 30.0671 90.9915 30.8045 90.255C31.5418 89.5185 32.7399 89.5185 33.4773 90.255L35.3678 92.1434C36.1051 92.8799 36.1051 94.0767 35.3678 94.8132C34.9992 95.1814 34.5147 95.3656 34.0302 95.3656H34.0326Z" fill="#D6E4CA"/>
<path d="M30.2515 66.0952H28.3609C27.3164 66.0952 26.4703 65.2501 26.4703 64.2068C26.4703 63.1634 27.3164 62.3184 28.3609 62.3184H30.2515C31.296 62.3184 32.1421 63.1634 32.1421 64.2068C32.1421 65.2501 31.296 66.0952 30.2515 66.0952Z" fill="#D6E4CA"/>
<path d="M22.6892 50.9881C22.2047 50.9881 21.7226 50.804 21.3516 50.4358C20.6143 49.6993 20.6143 48.5025 21.3516 47.766L23.2421 45.8776C23.9795 45.1411 25.1776 45.1411 25.9149 45.8776C26.6523 46.614 26.6523 47.8108 25.9149 48.5473L24.0244 50.4358C23.6557 50.804 23.1713 50.9881 22.6868 50.9881H22.6892Z" fill="#D6E4CA"/>
<path d="M28.3609 33.9919C27.3164 33.9919 26.4703 33.1469 26.4703 32.1035V30.2151C26.4703 29.1717 27.3164 28.3267 28.3609 28.3267C29.4055 28.3267 30.2515 29.1717 30.2515 30.2151V32.1035C30.2515 33.1469 29.4055 33.9919 28.3609 33.9919Z" fill="#D6E4CA"/>
<path d="M39.7044 54.7642C39.22 54.7642 38.7379 54.5801 38.3669 54.2119L34.5857 50.435C33.8484 49.6985 33.8484 48.5017 34.5857 47.7653C35.323 47.0288 36.5212 47.0288 37.2585 47.7653L41.0396 51.5421C41.777 52.2786 41.777 53.4754 41.0396 54.2119C40.671 54.5801 40.1865 54.7642 39.7021 54.7642H39.7044Z" fill="#D6E4CA"/>
<path d="M45.3761 39.6572H43.4855C42.441 39.6572 41.595 38.8122 41.595 37.7688C41.595 36.7254 42.441 35.8804 43.4855 35.8804H45.3761C46.4207 35.8804 47.2667 36.7254 47.2667 37.7688C47.2667 38.8122 46.4207 39.6572 45.3761 39.6572Z" fill="#D6E4CA"/>
<path d="M18.9081 39.6572H17.0175C15.973 39.6572 15.127 38.8122 15.127 37.7688C15.127 36.7254 15.973 35.8804 17.0175 35.8804H18.9081C19.9526 35.8804 20.7987 36.7254 20.7987 37.7688C20.7987 38.8122 19.9526 39.6572 18.9081 39.6572Z" fill="#D6E4CA"/>
<path d="M88.8593 26.4382C87.8148 26.4382 86.9688 25.5932 86.9688 24.5498V22.6614C86.9688 21.618 87.8148 20.7729 88.8593 20.7729C89.9039 20.7729 90.7499 21.618 90.7499 22.6614V24.5498C90.7499 25.5932 89.9039 26.4382 88.8593 26.4382Z" fill="#D6E4CA"/>
<path d="M81.2969 47.2106C80.5053 47.2106 79.7679 46.7101 79.5033 45.9194C79.1724 44.9303 79.7089 43.861 80.699 43.5305L86.3708 41.6421C87.361 41.3116 88.4315 41.8474 88.7623 42.8365C89.0932 43.8256 88.5567 44.8949 87.5666 45.2254L81.8948 47.1138C81.6963 47.1799 81.4955 47.2106 81.2969 47.2106Z" fill="#D6E4CA"/>
<path d="M26.4704 83.0911C25.9859 83.0911 25.5039 82.907 25.1328 82.5388C24.3955 81.8023 24.3955 80.6055 25.1328 79.869L27.0234 77.9806C27.7607 77.2441 28.9589 77.2441 29.6962 77.9806C30.4335 78.7171 30.4335 79.9139 29.6962 80.6504L27.8056 82.5388C27.437 82.907 26.9525 83.0911 26.468 83.0911H26.4704Z" fill="#D6E4CA"/>
</svg>
