<svg width="30" height="33" viewBox="0 0 30 33" fill="none" xmlns="http://www.w3.org/2000/svg">
<path d="M28.929 8.18902C28.1317 9.37392 27.1674 10.3835 26.036 11.2176C26.048 11.3869 26.054 11.6408 26.054 11.9793C26.054 13.5508 25.8277 15.1196 25.375 16.6857C24.9224 18.2518 24.2347 19.7543 23.312 21.1931C22.3894 22.6319 21.291 23.9045 20.017 25.0108C18.743 26.1172 17.2074 26.9998 15.41 27.6586C13.6127 28.3174 11.69 28.6468 9.64203 28.6468C6.41603 28.6468 3.4637 27.7703 0.785034 26.0173C1.2017 26.0654 1.66603 26.0894 2.17803 26.0894C4.8567 26.0894 7.2437 25.2552 9.33903 23.5869C8.08903 23.5625 6.97003 23.1725 5.98203 22.4169C4.99403 21.6613 4.31537 20.6971 3.94603 19.5244C4.3387 19.5847 4.7017 19.6148 5.03503 19.6148C5.54703 19.6148 6.05303 19.5485 6.55303 19.4157C5.2197 19.1375 4.11537 18.4634 3.24003 17.3936C2.3647 16.3238 1.92703 15.0814 1.92703 13.6663V13.5942C2.73637 14.0539 3.60537 14.3017 4.53403 14.3376C3.74803 13.8054 3.12303 13.1101 2.65903 12.2515C2.19503 11.393 1.96303 10.462 1.96303 9.45855C1.96303 8.39486 2.22503 7.40936 2.74903 6.50207C4.1897 8.30379 5.9427 9.74564 8.00803 10.8276C10.0734 11.9096 12.2847 12.5112 14.642 12.6324C14.5467 12.1726 14.499 11.7254 14.499 11.2907C14.499 9.67048 15.0617 8.28923 16.187 7.14699C17.3124 6.00475 18.6724 5.43329 20.267 5.43262C21.9337 5.43262 23.3384 6.0491 24.481 7.28207C25.7784 7.02816 26.9987 6.55658 28.142 5.8673C27.7014 7.25803 26.856 8.33426 25.606 9.09598C26.7134 8.97478 27.8204 8.67246 28.927 8.18902H28.929Z" fill="black"/>
</svg>
