<svg width="30" height="31" viewBox="0 0 30 31" fill="none" xmlns="http://www.w3.org/2000/svg">
<path d="M15 3.45359C18.869 3.45359 19.33 3.46883 20.857 3.53992C22.27 3.60594 23.04 3.84359 23.549 4.0457C24.182 4.28336 24.749 4.65914 25.217 5.1507C25.697 5.62602 26.069 6.20289 26.303 6.84375C26.503 7.36273 26.738 8.14476 26.8 9.57781C26.873 11.1297 26.886 11.5959 26.886 15.5284C26.886 19.4588 26.873 19.926 26.8 21.4769C26.739 22.912 26.503 23.694 26.303 24.2109C25.815 25.4957 24.814 26.5113 23.549 27.008C23.04 27.2111 22.268 27.4498 20.857 27.5127C19.331 27.5869 18.87 27.6001 15 27.6001C11.128 27.6001 10.671 27.5869 9.14102 27.5127C7.72802 27.4508 6.96002 27.2111 6.44902 27.008C5.81802 26.7713 5.25102 26.3945 4.78102 25.905C4.30002 25.4327 3.93002 24.8528 3.69402 24.2109C3.49602 23.694 3.26102 22.9099 3.19702 21.4769C3.12602 19.927 3.11202 19.4588 3.11202 15.5284C3.11202 11.5959 3.12602 11.1317 3.19702 9.57781C3.26202 8.14375 3.49502 7.36273 3.69402 6.84375C3.92802 6.20391 4.29802 5.62703 4.78202 5.1507C5.25002 4.66117 5.81802 4.28437 6.44902 4.0457C6.96002 3.84461 7.72902 3.60594 9.14102 3.53992C10.671 3.46984 11.127 3.45359 15 3.45359ZM15 0.800781C11.061 0.800781 10.569 0.819062 9.02102 0.890156C7.47802 0.962266 6.42602 1.21008 5.50402 1.57367C4.53402 1.94437 3.65902 2.52328 2.93402 3.27281C2.19402 4.00914 1.62602 4.89781 1.25902 5.88195C0.903024 6.81836 0.657023 7.88883 0.586023 9.45594C0.517023 11.0251 0.499023 11.5268 0.499023 15.5263C0.499023 19.5238 0.517023 20.0276 0.587023 21.5967C0.658024 23.1638 0.903023 24.2323 1.26002 25.1727C1.62502 26.1559 2.19502 27.0466 2.93302 27.7809C3.65802 28.5314 4.53302 29.1093 5.50202 29.48C6.42402 29.8416 7.47802 30.0934 9.01902 30.1615C10.569 30.2387 11.059 30.2529 14.999 30.2529C18.939 30.2529 19.431 30.2377 20.979 30.1615C22.52 30.0945 23.572 29.8426 24.499 29.48C26.446 28.7142 27.985 27.1502 28.739 25.1727C29.095 24.2323 29.343 23.1638 29.41 21.5977C29.486 20.0276 29.5 19.5248 29.5 15.5273C29.5 11.5278 29.485 11.0271 29.41 9.45695C29.344 7.88883 29.096 6.82039 28.739 5.88297C28.375 4.89781 27.804 4.00914 27.066 3.27281C26.342 2.52328 25.465 1.94539 24.498 1.57367C23.572 1.21109 22.52 0.962266 20.978 0.890156C19.432 0.818047 18.936 0.800781 15 0.800781ZM14.896 7.83195C10.813 7.83195 7.50202 11.1927 7.50202 15.3425C7.50202 19.4893 10.813 22.848 14.896 22.848C18.979 22.848 22.293 19.4883 22.293 15.3425C22.293 11.1916 18.979 7.83195 14.896 7.83195ZM14.896 20.2165C12.247 20.2165 10.096 18.0339 10.096 15.3415C10.096 12.648 12.247 10.4665 14.896 10.4665C17.548 10.4665 19.697 12.6491 19.697 15.3415C19.697 18.0349 17.548 20.2165 14.896 20.2165ZM22.583 5.78242C23.539 5.78242 24.308 6.56547 24.308 7.53539C24.308 8.50531 23.539 9.28937 22.583 9.28937C21.631 9.28937 20.853 8.50328 20.853 7.53539C20.853 6.56445 21.63 5.78242 22.583 5.78242Z" fill="black"/>
</svg>
