<svg width="24" height="24" viewBox="0 0 24 24" fill="none" xmlns="http://www.w3.org/2000/svg">
<g filter="url(#filter0_d_757_4435)">
<path d="M12.7959 0.996094V2.34961C12.7959 2.7666 12.4473 3.11523 12.0303 3.11523C11.6133 3.11523 11.2578 2.7666 11.2578 2.34961V0.996094C11.2578 0.579102 11.6133 0.223633 12.0303 0.223633C12.4473 0.223633 12.7959 0.579102 12.7959 0.996094ZM15.5029 3.49121L16.46 2.52734C16.7539 2.2334 17.2529 2.22656 17.5469 2.52051C17.8408 2.81445 17.8408 3.32031 17.5537 3.60742L16.5967 4.57129C16.2959 4.87207 15.7969 4.86523 15.5098 4.57812C15.2158 4.28418 15.209 3.78516 15.5029 3.49121ZM7.46387 4.57129L6.50684 3.60059C6.21973 3.32031 6.21973 2.81445 6.52051 2.52051C6.80762 2.22656 7.31348 2.24023 7.60059 2.52734L8.55762 3.49121C8.84473 3.77832 8.83789 4.28418 8.54395 4.57812C8.25 4.86523 7.75098 4.86523 7.46387 4.57129ZM12.0234 4.3457C14.0469 4.3457 15.7148 6.01367 15.7148 8.03711C15.7148 10.0605 14.0469 11.7285 12.0234 11.7285C10.0068 11.7285 8.33887 10.0605 8.33887 8.03711C8.33887 6.01367 10.0068 4.3457 12.0234 4.3457ZM12.0234 5.82227C10.8203 5.82227 9.81543 6.82715 9.81543 8.03711C9.81543 9.24707 10.8203 10.252 12.0234 10.252C13.2334 10.252 14.2383 9.24707 14.2383 8.03711C14.2383 6.82715 13.2334 5.82227 12.0234 5.82227ZM19.0645 8.80273H17.7178C17.3008 8.80273 16.9521 8.4541 16.9521 8.03711C16.9521 7.62012 17.3008 7.27148 17.7178 7.27148H19.0645C19.4814 7.27148 19.8369 7.62012 19.8369 8.03711C19.8369 8.4541 19.4814 8.80273 19.0645 8.80273ZM4.98926 7.27148H6.34277C6.75977 7.27148 7.1084 7.62012 7.1084 8.03711C7.1084 8.4541 6.75977 8.80273 6.34277 8.80273H4.98926C4.57227 8.80273 4.22363 8.4541 4.22363 8.03711C4.22363 7.62012 4.57227 7.27148 4.98926 7.27148ZM16.583 11.5029L17.5537 12.46C17.8477 12.7539 17.8477 13.2529 17.5605 13.5469C17.2598 13.8408 16.7676 13.8477 16.4736 13.5605L15.5098 12.5967C15.2158 12.2959 15.209 11.8037 15.5029 11.5098C15.7969 11.2158 16.2959 11.2158 16.583 11.5029ZM6.50684 12.46L7.46387 11.5029C7.75781 11.2158 8.26367 11.2158 8.55762 11.5166C8.84473 11.8037 8.83789 12.3027 8.54395 12.5967L7.58008 13.5537C7.29297 13.8408 6.78711 13.834 6.49316 13.54C6.20605 13.2529 6.21289 12.7471 6.50684 12.46ZM12.7959 13.7246V15.0781C12.7959 15.4951 12.4473 15.8506 12.0303 15.8506C11.6133 15.8506 11.2578 15.4951 11.2578 15.0781V13.7246C11.2578 13.3076 11.6133 12.959 12.0303 12.959C12.4473 12.959 12.7959 13.3076 12.7959 13.7246Z" fill="#FFFEF0"/>
</g>
<defs>
<filter id="filter0_d_757_4435" x="0.223633" y="0.223633" width="23.6133" height="23.627" filterUnits="userSpaceOnUse" color-interpolation-filters="sRGB">
<feFlood flood-opacity="0" result="BackgroundImageFix"/>
<feColorMatrix in="SourceAlpha" type="matrix" values="0 0 0 0 0 0 0 0 0 0 0 0 0 0 0 0 0 0 127 0" result="hardAlpha"/>
<feOffset dy="4"/>
<feGaussianBlur stdDeviation="2"/>
<feComposite in2="hardAlpha" operator="out"/>
<feColorMatrix type="matrix" values="0 0 0 0 0 0 0 0 0 0 0 0 0 0 0 0 0 0 0.25 0"/>
<feBlend mode="normal" in2="BackgroundImageFix" result="effect1_dropShadow_757_4435"/>
<feBlend mode="normal" in="SourceGraphic" in2="effect1_dropShadow_757_4435" result="shape"/>
</filter>
</defs>
</svg>
