<svg width="15" height="15" viewBox="0 0 15 15" fill="none" xmlns="http://www.w3.org/2000/svg">
<path d="M10.9082 9.10156C11.667 9.10156 12.4531 8.96484 12.9453 8.75293C13.1777 8.64355 13.3418 8.60938 13.5127 8.60938C13.8477 8.60938 14.1348 8.8623 14.1348 9.25195C14.1348 9.38867 14.1006 9.58691 13.9912 9.82617C12.8633 12.4102 10.3818 14.0234 7.42871 14.0234C3.25879 14.0234 0.223633 10.9746 0.223633 6.80469C0.223633 3.89941 2.00781 1.21973 4.6123 0.166992C4.84473 0.078125 5.02246 0.0439453 5.13184 0.0439453C5.54199 0.0439453 5.80859 0.365234 5.80859 0.713867C5.80859 0.898438 5.76074 1.06934 5.63086 1.30859C5.38477 1.79395 5.2207 2.66211 5.2207 3.6123C5.2207 7.00293 7.40137 9.10156 10.9082 9.10156ZM1.76855 6.77734C1.76855 10.0723 4.1748 12.4785 7.46289 12.4785C9.27441 12.4785 10.9629 11.6719 11.9199 10.3047C11.5234 10.4414 11.1064 10.4961 10.6211 10.4961C6.37598 10.4961 3.80566 7.97363 3.80566 3.82422C3.80566 3.24316 3.8877 2.7168 4.03809 2.23145C2.62305 3.25684 1.76855 5 1.76855 6.77734Z" fill="url(#paint0_linear_757_4434)"/>
<defs>
<linearGradient id="paint0_linear_757_4434" x1="-1.84375" y1="5.9" x2="10.3906" y2="5.9" gradientUnits="userSpaceOnUse">
<stop offset="0.0206453" stop-color="#D6E4CA"/>
<stop offset="1" stop-color="#20045B"/>
</linearGradient>
</defs>
</svg>
