<svg width="30" height="27" viewBox="0 0 30 27" fill="none" xmlns="http://www.w3.org/2000/svg">
<g id="tiktok-alt logo">
<g id="Group">
<path id="Vector" d="M6.5 4.01404C5.83696 4.01404 5.20107 4.24713 4.73223 4.66205C4.26339 5.07696 4 5.6397 4 6.22648V21.7136C4 22.3003 4.26339 22.8631 4.73223 23.278C5.20107 23.6929 5.83696 23.926 6.5 23.926H24C24.663 23.926 25.2989 23.6929 25.7678 23.278C26.2366 22.8631 26.5 22.3003 26.5 21.7136V6.22648C26.5 5.6397 26.2366 5.07696 25.7678 4.66205C25.2989 4.24713 24.663 4.01404 24 4.01404H6.5ZM15.9138 7.3327H18.48C18.48 7.3327 18.3375 10.2476 22.0425 10.4522V12.7089C22.0425 12.7089 20.065 12.8184 18.48 11.7465L18.5062 16.4004C18.5067 17.2328 18.2282 18.0467 17.7059 18.7391C17.1836 19.4314 16.441 19.9711 15.5721 20.2899C14.7031 20.6087 13.7468 20.6922 12.8242 20.5299C11.9016 20.3676 11.0541 19.9668 10.389 19.3781C9.72381 18.7895 9.27089 18.0395 9.08749 17.223C8.9041 16.4065 8.99848 15.5602 9.35868 14.7912C9.71889 14.0222 10.3287 13.365 11.1111 12.9028C11.8934 12.4406 12.8131 12.1941 13.7538 12.1945H14.42V14.4977C13.9853 14.3782 13.519 14.3831 13.0876 14.5118C12.6562 14.6405 12.2817 14.8864 12.0175 15.2145C11.7517 15.5423 11.61 15.9362 11.6127 16.3397C11.6154 16.7432 11.7624 17.1356 12.0326 17.4606C12.3029 17.7856 12.6824 18.0265 13.1169 18.1489C13.5514 18.2712 14.0185 18.2687 14.4513 18.1416C14.8836 18.0159 15.2602 17.7726 15.5273 17.4465C15.7943 17.1203 15.9383 16.7279 15.9387 16.3252L15.9125 7.3327H15.9138Z" fill="white"/>
</g>
</g>
</svg>
