<svg width="30" height="30" viewBox="0 0 30 30" fill="none" xmlns="http://www.w3.org/2000/svg">
<g id="twitter logo">
<path id="Vector" d="M28.929 7.56473C28.1317 8.6328 27.1674 9.5428 26.036 10.2947C26.048 10.4473 26.054 10.6762 26.054 10.9813C26.054 12.3979 25.8277 13.8121 25.375 15.2237C24.9224 16.6354 24.2347 17.9897 23.312 19.2867C22.3894 20.5836 21.291 21.7308 20.017 22.728C18.743 23.7253 17.2074 24.5209 15.41 25.1147C13.6127 25.7086 11.69 26.0055 9.64203 26.0055C6.41603 26.0055 3.4637 25.2154 0.785034 23.6353C1.2017 23.6786 1.66603 23.7003 2.17803 23.7003C4.8567 23.7003 7.2437 22.9484 9.33903 21.4445C8.08903 21.4225 6.97003 21.071 5.98203 20.3899C4.99403 19.7087 4.31537 18.8396 3.94603 17.7825C4.3387 17.8369 4.7017 17.864 5.03503 17.864C5.54703 17.864 6.05303 17.8042 6.55303 17.6846C5.2197 17.4337 4.11537 16.8262 3.24003 15.8618C2.3647 14.8975 1.92703 13.7776 1.92703 12.502V12.437C2.73637 12.8514 3.60537 13.0748 4.53403 13.1071C3.74803 12.6274 3.12303 12.0006 2.65903 11.2267C2.19503 10.4528 1.96303 9.6136 1.96303 8.70909C1.96303 7.75027 2.22503 6.86193 2.74903 6.04409C4.1897 7.66818 5.9427 8.96787 8.00803 9.94318C10.0734 10.9185 12.2847 11.4608 14.642 11.57C14.5467 11.1556 14.499 10.7525 14.499 10.3606C14.499 8.90013 15.0617 7.65506 16.187 6.62543C17.3124 5.59581 18.6724 5.08069 20.267 5.08008C21.9337 5.08008 23.3384 5.63578 24.481 6.74719C25.7784 6.51832 26.9987 6.09322 28.142 5.47191C27.7014 6.72552 26.856 7.69564 25.606 8.38226C26.7134 8.27301 27.8204 8.0005 28.927 7.56473H28.929Z" fill="white"/>
</g>
</svg>
