<svg width="32" height="30" viewBox="0 0 32 30" fill="none" xmlns="http://www.w3.org/2000/svg">
<g id="instagram logo">
<path id="Vector" d="M16 4.19754C19.869 4.19754 20.33 4.21127 21.857 4.27536C23.27 4.33487 24.04 4.54909 24.549 4.73127C25.182 4.9455 25.749 5.28423 26.217 5.72733C26.697 6.15578 27.069 6.67578 27.303 7.25346C27.503 7.72127 27.738 8.4262 27.8 9.71796C27.873 11.1168 27.886 11.5371 27.886 15.0818C27.886 18.6248 27.873 19.0459 27.8 20.4439C27.739 21.7375 27.503 22.4424 27.303 22.9084C26.815 24.0665 25.814 24.982 24.549 25.4297C24.04 25.6128 23.268 25.8279 21.857 25.8847C20.331 25.9515 19.87 25.9634 16 25.9634C12.128 25.9634 11.671 25.9515 10.141 25.8847C8.72802 25.8288 7.96002 25.6128 7.44902 25.4297C6.81802 25.2163 6.25102 24.8767 5.78102 24.4354C5.30002 24.0097 4.93002 23.487 4.69402 22.9084C4.49602 22.4424 4.26102 21.7356 4.19702 20.4439C4.12602 19.0468 4.11202 18.6248 4.11202 15.0818C4.11202 11.5371 4.12602 11.1187 4.19702 9.71796C4.26202 8.42529 4.49502 7.72127 4.69402 7.25346C4.92802 6.6767 5.29802 6.1567 5.78202 5.72733C6.25002 5.28606 6.81802 4.94642 7.44902 4.73127C7.96002 4.55001 8.72902 4.33487 10.141 4.27536C11.671 4.21219 12.127 4.19754 16 4.19754ZM16 1.80627C12.061 1.80627 11.569 1.82275 10.021 1.88684C8.47802 1.95184 7.42602 2.17522 6.50402 2.50296C5.53402 2.83712 4.65902 3.35895 3.93402 4.03458C3.19402 4.69832 2.62602 5.49937 2.25902 6.38649C1.90302 7.23057 1.65702 8.1955 1.58602 9.60811C1.51702 11.0225 1.49902 11.4748 1.49902 15.08C1.49902 18.6834 1.51702 19.1375 1.58702 20.5519C1.65802 21.9645 1.90302 22.9276 2.26002 23.7754C2.62502 24.6616 3.19502 25.4644 3.93302 26.1263C4.65802 26.8029 5.53302 27.3238 6.50202 27.658C7.42402 27.9839 8.47802 28.2109 10.019 28.2723C11.569 28.3418 12.059 28.3547 15.999 28.3547C19.939 28.3547 20.431 28.3409 21.979 28.2723C23.52 28.2118 24.572 27.9848 25.499 27.658C27.446 26.9677 28.985 25.5578 29.739 23.7754C30.095 22.9276 30.343 21.9645 30.41 20.5528C30.486 19.1375 30.5 18.6843 30.5 15.0809C30.5 11.4757 30.485 11.0244 30.41 9.60902C30.344 8.1955 30.096 7.2324 29.739 6.3874C29.375 5.49937 28.804 4.69832 28.066 4.03458C27.342 3.35895 26.465 2.83803 25.498 2.50296C24.572 2.17613 23.52 1.95184 21.978 1.88684C20.432 1.82184 19.936 1.80627 16 1.80627ZM15.896 8.14423C11.813 8.14423 8.50202 11.1736 8.50202 14.9143C8.50202 18.6523 11.813 21.6798 15.896 21.6798C19.979 21.6798 23.293 18.6513 23.293 14.9143C23.293 11.1727 19.979 8.14423 15.896 8.14423ZM15.896 19.3078C13.247 19.3078 11.096 17.3404 11.096 14.9134C11.096 12.4855 13.247 10.519 15.896 10.519C18.548 10.519 20.697 12.4864 20.697 14.9134C20.697 17.3413 18.548 19.3078 15.896 19.3078ZM23.583 6.29677C24.539 6.29677 25.308 7.00261 25.308 7.87691C25.308 8.7512 24.539 9.45797 23.583 9.45797C22.631 9.45797 21.853 8.74937 21.853 7.87691C21.853 7.0017 22.63 6.29677 23.583 6.29677Z" fill="white"/>
</g>
</svg>
