<svg width="16" height="16" viewBox="0 0 16 16" fill="none" xmlns="http://www.w3.org/2000/svg">
<path d="M8.7959 0.996094V2.34961C8.7959 2.7666 8.44727 3.11523 8.03027 3.11523C7.61328 3.11523 7.25781 2.7666 7.25781 2.34961V0.996094C7.25781 0.579102 7.61328 0.223633 8.03027 0.223633C8.44727 0.223633 8.7959 0.579102 8.7959 0.996094ZM11.5029 3.49121L12.46 2.52734C12.7539 2.2334 13.2529 2.22656 13.5469 2.52051C13.8408 2.81445 13.8408 3.32031 13.5537 3.60742L12.5967 4.57129C12.2959 4.87207 11.7969 4.86523 11.5098 4.57812C11.2158 4.28418 11.209 3.78516 11.5029 3.49121ZM3.46387 4.57129L2.50684 3.60059C2.21973 3.32031 2.21973 2.81445 2.52051 2.52051C2.80762 2.22656 3.31348 2.24023 3.60059 2.52734L4.55762 3.49121C4.84473 3.77832 4.83789 4.28418 4.54395 4.57812C4.25 4.86523 3.75098 4.86523 3.46387 4.57129ZM8.02344 4.3457C10.0469 4.3457 11.7148 6.01367 11.7148 8.03711C11.7148 10.0605 10.0469 11.7285 8.02344 11.7285C6.00684 11.7285 4.33887 10.0605 4.33887 8.03711C4.33887 6.01367 6.00684 4.3457 8.02344 4.3457ZM8.02344 5.82227C6.82031 5.82227 5.81543 6.82715 5.81543 8.03711C5.81543 9.24707 6.82031 10.252 8.02344 10.252C9.2334 10.252 10.2383 9.24707 10.2383 8.03711C10.2383 6.82715 9.2334 5.82227 8.02344 5.82227ZM15.0645 8.80273H13.7178C13.3008 8.80273 12.9521 8.4541 12.9521 8.03711C12.9521 7.62012 13.3008 7.27148 13.7178 7.27148H15.0645C15.4814 7.27148 15.8369 7.62012 15.8369 8.03711C15.8369 8.4541 15.4814 8.80273 15.0645 8.80273ZM0.989258 7.27148H2.34277C2.75977 7.27148 3.1084 7.62012 3.1084 8.03711C3.1084 8.4541 2.75977 8.80273 2.34277 8.80273H0.989258C0.572266 8.80273 0.223633 8.4541 0.223633 8.03711C0.223633 7.62012 0.572266 7.27148 0.989258 7.27148ZM12.583 11.5029L13.5537 12.46C13.8477 12.7539 13.8477 13.2529 13.5605 13.5469C13.2598 13.8408 12.7676 13.8477 12.4736 13.5605L11.5098 12.5967C11.2158 12.2959 11.209 11.8037 11.5029 11.5098C11.7969 11.2158 12.2959 11.2158 12.583 11.5029ZM2.50684 12.46L3.46387 11.5029C3.75781 11.2158 4.26367 11.2158 4.55762 11.5166C4.84473 11.8037 4.83789 12.3027 4.54395 12.5967L3.58008 13.5537C3.29297 13.8408 2.78711 13.834 2.49316 13.54C2.20605 13.2529 2.21289 12.7471 2.50684 12.46ZM8.7959 13.7246V15.0781C8.7959 15.4951 8.44727 15.8506 8.03027 15.8506C7.61328 15.8506 7.25781 15.4951 7.25781 15.0781V13.7246C7.25781 13.3076 7.61328 12.959 8.03027 12.959C8.44727 12.959 8.7959 13.3076 8.7959 13.7246Z" fill="url(#paint0_linear_757_4440)"/>
<defs>
<linearGradient id="paint0_linear_757_4440" x1="-2.26563" y1="6.9" x2="15.4531" y2="6.9" gradientUnits="userSpaceOnUse">
<stop stop-color="#E5ACB4"/>
<stop offset="1" stop-color="#D54958"/>
</linearGradient>
</defs>
</svg>
