<svg width="23" height="23" viewBox="0 0 23 23" fill="none" xmlns="http://www.w3.org/2000/svg">
<g filter="url(#filter0_d_757_4441)">
<path d="M14.9082 9.10156C15.667 9.10156 16.4531 8.96484 16.9453 8.75293C17.1777 8.64355 17.3418 8.60938 17.5127 8.60938C17.8477 8.60938 18.1348 8.8623 18.1348 9.25195C18.1348 9.38867 18.1006 9.58691 17.9912 9.82617C16.8633 12.4102 14.3818 14.0234 11.4287 14.0234C7.25879 14.0234 4.22363 10.9746 4.22363 6.80469C4.22363 3.89941 6.00781 1.21973 8.6123 0.166992C8.84473 0.078125 9.02246 0.0439453 9.13184 0.0439453C9.54199 0.0439453 9.80859 0.365234 9.80859 0.713867C9.80859 0.898438 9.76074 1.06934 9.63086 1.30859C9.38477 1.79395 9.2207 2.66211 9.2207 3.6123C9.2207 7.00293 11.4014 9.10156 14.9082 9.10156ZM5.76855 6.77734C5.76855 10.0723 8.1748 12.4785 11.4629 12.4785C13.2744 12.4785 14.9629 11.6719 15.9199 10.3047C15.5234 10.4414 15.1064 10.4961 14.6211 10.4961C10.376 10.4961 7.80566 7.97363 7.80566 3.82422C7.80566 3.24316 7.8877 2.7168 8.03809 2.23145C6.62305 3.25684 5.76855 5 5.76855 6.77734Z" fill="#D6E4CA"/>
</g>
<defs>
<filter id="filter0_d_757_4441" x="0.223633" y="0.0439453" width="21.9111" height="21.9795" filterUnits="userSpaceOnUse" color-interpolation-filters="sRGB">
<feFlood flood-opacity="0" result="BackgroundImageFix"/>
<feColorMatrix in="SourceAlpha" type="matrix" values="0 0 0 0 0 0 0 0 0 0 0 0 0 0 0 0 0 0 127 0" result="hardAlpha"/>
<feOffset dy="4"/>
<feGaussianBlur stdDeviation="2"/>
<feComposite in2="hardAlpha" operator="out"/>
<feColorMatrix type="matrix" values="0 0 0 0 0 0 0 0 0 0 0 0 0 0 0 0 0 0 0.25 0"/>
<feBlend mode="normal" in2="BackgroundImageFix" result="effect1_dropShadow_757_4441"/>
<feBlend mode="normal" in="SourceGraphic" in2="effect1_dropShadow_757_4441" result="shape"/>
</filter>
</defs>
</svg>
